<svg xmlns="http://www.w3.org/2000/svg" width="30" height="30" fill="none"><path fill="#000" d="M17 3.792a2 2 0 1 1-4 0 2 2 0 0 1 4 0m0 22a2 2 0 1 1-4 0 2 2 0 0 1 4 0m5.232-19.527a2 2 0 1 1-3.464-2 2 2 0 0 1 3.464 2m-11 19.053a2 2 0 1 1-3.464-2 2 2 0 0 1 3.464 2m14.294-14.294a2 2 0 1 1-2-3.465 2 2 0 0 1 2 3.465m-19.052 11a2 2 0 1 1-2-3.465 2 2 0 0 1 2 3.465M26 16.792a2 2 0 1 1 0-4 2 2 0 0 1 0 4m-22 0a2 2 0 1 1 0-4 2 2 0 0 1 0 4m19.526 5.232a2 2 0 1 1 2-3.465 2 2 0 0 1-2 3.465m-19.052-11a2 2 0 1 1 2-3.465 2 2 0 0 1-2 3.465m14.294 14.294a2 2 0 1 1 3.464-2 2 2 0 0 1-3.464 2m-11-19.053a2 2 0 1 1 3.464-2 2 2 0 0 1-3.464 2"/></svg>